# xmcd
#
# Track frame offsets:
# 150
# 15425
# 31105
# 50580
# 69202
# 89125
# 104425
# 126150
# 142047
# 160425
# 178967
# 193640
# 210900
# 226795
#
# Disc length: 3319 seconds
#
#
# Revision: 0
# Processed by: cddbd v1.5.2PL0 Copyright (c) Steve Scherf et al.
# Submitted via: FreeRIP 2.945 
#
DISCID=be0cf50e
DTITLE=Chitãozinho e Xororó - O melhor de 2
DYEAR=1900
DGENRE=Country
TTITLE0=Alô
TTITLE1=Bailão de peão
TTITLE2=Falando às paredes
TTITLE3=Nuvem de lágrimas
TTITLE4=Página virada
TTITLE5=Pura emoção (Achy Breaky Heart)
TTITLE6=Um homem quando ama (Have You Ever Really Loved A Woman)
TTITLE7=É disso que o velho gosta
TTITLE8=Cheia de charme
TTITLE9=Foge de mim
TTITLE10=Vá pro inferno com seu amor
TTITLE11=Eu menti
TTITLE12=Dexei de ser cowboy por ela
TTITLE13=Evidências
EXTD=
EXTT0=
EXTT1=
EXTT2=
EXTT3=
EXTT4=
EXTT5=
EXTT6=
EXTT7=
EXTT8=
EXTT9=
EXTT10=
EXTT11=
EXTT12=
EXTT13=
PLAYORDER=
